<?xml version="1.0" encoding="utf-8"?>
<!-- Generator: Adobe Illmetrator 27.5.0, SVG Export Plug-In . SVG Version: 6.00 Build 0)  -->
<svg version="1.1" id="Layer_1" xmlns="http://www.w3.org/2000/svg" xmlns:xlink="http://www.w3.org/1999/xlink" x="0px" y="0px"
	 viewBox="0 0 274.5 97.1" style="enable-background:new 0 0 274.5 97.1;" xml:space="preserve">
<style type="text/css">
	.st0{fill:#FFFFFF;}
	.st1{stroke:#000000;stroke-width:6;stroke-miterlimit:10;}
	.st2{fill:none;stroke:#000000;stroke-width:6;stroke-miterlimit:10;}
</style>
<rect x="71.2" y="-60.3" class="st0" width="237.1" height="35.5"/>
<g>
	<g>
		<path d="M57.1,38.6c-3.2,0-6-0.7-8.5-2.1c-2.5-1.4-4.4-3.3-5.8-5.8c-1.4-2.4-2.1-5.2-2.1-8.4c0-3.2,0.7-6,2.1-8.4
			c1.4-2.4,3.3-4.4,5.8-5.8c2.4-1.4,5.2-2.1,8.4-2.1c3.2,0,6,0.7,8.5,2.1s4.4,3.3,5.8,5.8c1.4,2.4,2.1,5.3,2.1,8.4
			c0,3.1-0.7,5.9-2.1,8.4c-1.4,2.4-3.3,4.4-5.7,5.8C63.1,37.9,60.3,38.6,57.1,38.6z M57.1,30.9c1.6,0,3-0.4,4.1-1.1
			c1.2-0.7,2.1-1.7,2.8-3c0.7-1.3,1-2.8,1-4.5c0-1.7-0.3-3.2-1-4.5c-0.7-1.3-1.6-2.3-2.8-3.1c-1.2-0.7-2.6-1.1-4.2-1.1
			c-1.5,0-2.9,0.4-4.1,1.1c-1.2,0.7-2.2,1.8-2.8,3.1c-0.7,1.3-1,2.8-1,4.5c0,1.7,0.3,3.2,1,4.5c0.7,1.3,1.6,2.3,2.9,3
			C54.2,30.6,55.6,30.9,57.1,30.9z"/>
		<path d="M76.2,28.4V15.6H84v11.5L76.2,28.4z M84,27.1c0,0.8,0.1,1.5,0.3,2.1c0.2,0.6,0.5,1,0.8,1.3c0.4,0.3,0.8,0.5,1.4,0.5
			c1.1,0,1.9-0.2,2.5-0.8c0.6-0.6,0.8-1.5,0.8-2.7H92c0,2.4-0.3,4.4-1,6c-0.7,1.7-1.6,2.9-2.8,3.8c-1.2,0.9-2.5,1.3-4.1,1.3
			c-2.6,0-4.6-0.8-5.9-2.5c-1.3-1.7-1.9-4.2-1.9-7.7L84,27.1z M90.3,38.1l-0.4-4.1V15.6h7.9v22.5H90.3z"/>
		<path d="M100.1,22.3v-6.8h15.6v6.8H100.1z M111.3,38.6c-2.7,0-4.7-0.7-6-2c-1.3-1.3-2-3.2-2-5.7V8.5h7.9v20.2
			c0,0.8,0.1,1.4,0.3,1.8c0.2,0.4,0.6,0.5,1.2,0.5c0.2,0,0.5-0.1,0.9-0.2c0.3-0.1,0.6-0.3,0.8-0.4l2.7,5.9c-0.7,0.6-1.5,1.1-2.6,1.6
			S112.4,38.6,111.3,38.6z"/>
		<path d="M128.9,38.6c-2.1,0-3.8-0.5-5.3-1.4c-1.5-0.9-2.6-2.3-3.4-4c-0.8-1.8-1.2-3.9-1.2-6.3c0-2.5,0.4-4.6,1.2-6.4
			c0.8-1.8,1.9-3.1,3.4-4c1.5-0.9,3.2-1.4,5.3-1.4c1.8,0,3.3,0.5,4.5,1.4c1.2,0.9,2.1,2.3,2.6,4c0.6,1.8,0.9,3.9,0.9,6.4
			c0,2.5-0.3,4.6-0.9,6.3c-0.6,1.8-1.4,3.1-2.6,4S130.7,38.6,128.9,38.6z M131,31.1c0.7,0,1.4-0.2,1.9-0.6c0.6-0.4,1-0.9,1.3-1.5
			c0.3-0.6,0.5-1.4,0.5-2.2c0-0.8-0.2-1.6-0.5-2.2c-0.3-0.6-0.8-1.1-1.3-1.5c-0.6-0.4-1.2-0.5-2-0.5c-0.7,0-1.3,0.2-1.9,0.5
			c-0.6,0.4-1,0.9-1.3,1.5c-0.3,0.6-0.5,1.4-0.5,2.2c0,0.8,0.2,1.6,0.5,2.2c0.3,0.6,0.8,1.2,1.3,1.5C129.7,30.9,130.3,31.1,131,31.1
			z M135.1,38.1l-0.4-4.2V6.6h7.9v31.5H135.1z"/>
		<path d="M157.3,38.6c-2.3,0-4.4-0.5-6.2-1.5c-1.8-1-3.2-2.4-4.2-4.2c-1-1.8-1.5-3.8-1.5-6.1c0-2.3,0.5-4.3,1.5-6.1
			c1-1.8,2.4-3.2,4.2-4.2c1.8-1,3.8-1.5,6.1-1.5c2.3,0,4.4,0.5,6.2,1.5c1.8,1,3.2,2.4,4.2,4.2c1,1.8,1.5,3.8,1.5,6.1
			c0,2.3-0.5,4.4-1.5,6.1c-1,1.8-2.4,3.2-4.2,4.2C161.6,38.1,159.6,38.6,157.3,38.6z M157.3,31.1c0.7,0,1.4-0.2,1.9-0.6
			c0.6-0.4,1-0.9,1.3-1.5c0.3-0.6,0.5-1.4,0.5-2.2c0-0.8-0.2-1.6-0.5-2.2c-0.3-0.6-0.8-1.2-1.3-1.5c-0.6-0.4-1.2-0.6-2-0.6
			c-0.7,0-1.4,0.2-1.9,0.6c-0.6,0.4-1,0.9-1.3,1.5c-0.3,0.6-0.5,1.4-0.5,2.2c0,0.8,0.2,1.6,0.5,2.2c0.3,0.6,0.8,1.2,1.4,1.5
			C155.9,30.9,156.6,31.1,157.3,31.1z"/>
		<path d="M182.7,38.6c-2.3,0-4.4-0.5-6.2-1.5c-1.8-1-3.2-2.4-4.2-4.2c-1-1.8-1.5-3.8-1.5-6.1c0-2.3,0.5-4.3,1.5-6.1
			c1-1.8,2.4-3.2,4.2-4.2c1.8-1,3.8-1.5,6.1-1.5c2.3,0,4.4,0.5,6.2,1.5c1.8,1,3.2,2.4,4.2,4.2c1,1.8,1.5,3.8,1.5,6.1
			c0,2.3-0.5,4.4-1.5,6.1c-1,1.8-2.4,3.2-4.2,4.2C187.1,38.1,185,38.6,182.7,38.6z M182.7,31.1c0.7,0,1.4-0.2,1.9-0.6
			c0.6-0.4,1-0.9,1.3-1.5c0.3-0.6,0.5-1.4,0.5-2.2c0-0.8-0.2-1.6-0.5-2.2c-0.3-0.6-0.8-1.2-1.3-1.5c-0.6-0.4-1.2-0.6-2-0.6
			c-0.7,0-1.4,0.2-1.9,0.6c-0.6,0.4-1,0.9-1.3,1.5c-0.3,0.6-0.5,1.4-0.5,2.2c0,0.8,0.2,1.6,0.5,2.2c0.3,0.6,0.8,1.2,1.4,1.5
			C181.3,30.9,182,31.1,182.7,31.1z"/>
		<path d="M197.4,38.1V15.6h7.9v22.5H197.4z M203.4,26.6c0-2.4,0.5-4.5,1.4-6.1c0.9-1.6,2.1-2.9,3.6-3.7c1.5-0.8,3-1.3,4.5-1.3v7.9
			c-1.4,0-2.6,0.1-3.8,0.4c-1.2,0.3-2.1,0.6-2.8,1.1c-0.7,0.5-1.1,1.1-1.1,1.8L203.4,26.6z"/>
		<path d="M48.8,92.1L40,60.6h8.2l8.2,31.5H48.8z M49.9,92.1l7.7-31.5h7.2l-7.7,31.5H49.9z M66.2,92.1l-7.7-31.5h7.2l8.2,31.5H66.2z
			 M66.9,92.1l8.2-31.5h8.2l-8.8,31.5H66.9z"/>
		<path d="M92.5,92.6c-2.5,0-4.5-0.6-5.9-1.8c-1.4-1.2-2.1-2.9-2.1-5.1c0-2.3,0.7-4.1,2.1-5.2c1.4-1.1,3.4-1.7,5.9-1.7H99v4.6h-3.3
			c-1,0-1.8,0.2-2.4,0.5c-0.6,0.4-0.8,0.9-0.8,1.5c0,0.4,0.2,0.8,0.6,1s0.9,0.4,1.6,0.4c0.7,0,1.4-0.1,1.9-0.4
			c0.5-0.3,0.9-0.7,1.2-1.2c0.3-0.5,0.4-1.1,0.4-1.8h2c0,2.9-0.7,5.2-2,6.8C96.8,91.8,95,92.6,92.5,92.6z M98.3,92.1l-0.2-5.2V81
			c0-1.1-0.1-2-0.2-2.8c-0.1-0.8-0.4-1.5-0.9-2c-0.5-0.5-1.2-0.7-2.3-0.7c-0.7,0-1.3,0.2-1.8,0.5c-0.5,0.4-0.9,0.8-1.2,1.3L85,75
			c0.6-1.2,1.4-2.3,2.3-3.2s2-1.6,3.2-2.1c1.2-0.5,2.6-0.7,4.1-0.7c2.3,0,4.3,0.4,6,1.3c1.7,0.9,2.9,2.1,3.8,3.6s1.3,3.4,1.3,5.4
			v12.6H98.3z"/>
		<path d="M109.4,92.1V69.6h7.9v22.5H109.4z M115.4,80.6c0-2.4,0.5-4.5,1.4-6.1c0.9-1.6,2.1-2.9,3.6-3.7c1.5-0.8,3-1.3,4.5-1.3v7.9
			c-1.4,0-2.6,0.1-3.8,0.4c-1.2,0.3-2.1,0.6-2.8,1.1c-0.7,0.5-1.1,1.1-1.1,1.8L115.4,80.6z"/>
		<path d="M138.6,92.6c-2.4,0-4.4-0.5-6.3-1.5s-3.3-2.4-4.3-4.1c-1-1.8-1.5-3.8-1.5-6.2s0.5-4.4,1.5-6.2c1-1.8,2.4-3.2,4.2-4.1
			c1.8-1,3.9-1.5,6.2-1.5c2.2,0,4.2,0.5,5.9,1.5c1.7,1,3,2.5,4,4.6c1,2,1.5,4.6,1.5,7.7h-7.7c0-1.6-0.1-3-0.3-4.2s-0.6-2.2-1.1-2.9
			c-0.6-0.7-1.4-1.1-2.6-1.1c-0.9,0-1.6,0.3-2.2,0.8c-0.6,0.5-0.9,1.3-1.2,2.2c-0.2,1-0.3,2.2-0.3,3.5c0,1.3,0.2,2.4,0.5,3.1
			c0.4,0.8,0.8,1.3,1.4,1.6s1.2,0.5,1.9,0.5c1,0,1.8-0.2,2.5-0.7s1.2-1,1.3-1.7l6.9,2.2c-0.5,1.6-1.4,2.8-2.5,3.8
			c-1.2,0.9-2.4,1.6-3.8,2C141.4,92.4,140,92.6,138.6,92.6z M131.5,82.8l0-5h14.7v5H131.5z"/>
		<path d="M152.4,92.1l-0.1-31.5h7.9l0.1,31.5H152.4z M166,80.5c0-0.9-0.1-1.6-0.3-2.1c-0.2-0.6-0.5-1-0.8-1.3
			c-0.4-0.3-0.8-0.5-1.4-0.5c-1.1-0.1-1.9,0.2-2.5,0.8s-0.8,1.5-0.8,2.7h-2.1c0-2.4,0.3-4.4,1-6s1.6-2.9,2.8-3.8s2.5-1.3,4.1-1.3
			c2.7,0,4.7,0.8,5.9,2.5c1.3,1.7,1.9,4.2,1.9,7.7L166,80.5z M166,92.1V80.5l7.9-1.4v12.9H166z"/>
		<path d="M188.4,92.6c-2.3,0-4.4-0.5-6.2-1.5c-1.8-1-3.2-2.4-4.2-4.2c-1-1.8-1.5-3.8-1.5-6.1s0.5-4.3,1.5-6.1
			c1-1.8,2.4-3.2,4.2-4.2c1.8-1,3.8-1.5,6.1-1.5c2.3,0,4.4,0.5,6.2,1.5c1.8,1,3.2,2.4,4.2,4.2c1,1.8,1.5,3.8,1.5,6.1
			s-0.5,4.3-1.5,6.1c-1,1.8-2.4,3.2-4.2,4.2C192.7,92.1,190.7,92.6,188.4,92.6z M188.4,85.1c0.7,0,1.4-0.2,1.9-0.6
			c0.6-0.4,1-0.9,1.3-1.5c0.3-0.6,0.5-1.4,0.5-2.2s-0.2-1.6-0.5-2.2c-0.3-0.6-0.8-1.2-1.3-1.5c-0.6-0.4-1.2-0.6-2-0.6
			c-0.7,0-1.4,0.2-1.9,0.6c-0.6,0.4-1,0.9-1.3,1.5c-0.3,0.6-0.5,1.4-0.5,2.2s0.2,1.6,0.5,2.2c0.3,0.6,0.8,1.2,1.4,1.5
			C187,84.9,187.7,85.1,188.4,85.1z"/>
		<path d="M202.8,82.4V69.6h7.9v11.5L202.8,82.4z M210.7,81.1c0,0.8,0.1,1.5,0.3,2.1s0.5,1,0.8,1.3c0.4,0.3,0.8,0.5,1.4,0.5
			c1.1,0,1.9-0.2,2.5-0.8c0.6-0.6,0.8-1.5,0.8-2.7h2.1c0,2.4-0.3,4.4-1,6s-1.6,2.9-2.8,3.8c-1.2,0.9-2.5,1.3-4.1,1.3
			c-2.6,0-4.6-0.8-5.9-2.5c-1.3-1.7-1.9-4.2-1.9-7.7L210.7,81.1z M216.9,92.1l-0.4-4.1V69.6h7.9v22.5H216.9z"/>
		<path d="M236.5,92.6c-1.5,0-2.8-0.2-4.1-0.6c-1.3-0.4-2.3-1-3.2-1.8c-0.9-0.8-1.5-1.7-1.9-2.8l6.2-2.5c0.3,0.8,0.8,1.3,1.4,1.6
			c0.6,0.2,1.1,0.3,1.5,0.3c0.5,0,0.8-0.1,1.1-0.3c0.3-0.2,0.4-0.5,0.4-0.9c0-0.4-0.2-0.8-0.6-1.1s-1-0.5-1.9-0.7l-1.8-0.4
			c-1.9-0.5-3.4-1.4-4.4-2.7s-1.5-2.7-1.5-4.4c0-2.3,0.8-4.1,2.5-5.4s3.9-1.9,6.7-1.9c1.7,0,3.2,0.2,4.3,0.7c1.2,0.4,2.1,1,2.9,1.8
			c0.8,0.8,1.3,1.7,1.7,2.7l-6.1,2.4c-0.2-0.6-0.5-1-1-1.3s-1.1-0.4-1.8-0.4c-0.5,0-0.9,0.1-1.2,0.4s-0.4,0.5-0.4,0.9
			c0,0.4,0.2,0.7,0.6,0.9c0.4,0.3,1.1,0.5,1.9,0.7l1.8,0.4c1.3,0.3,2.5,0.8,3.5,1.5c1,0.7,1.8,1.5,2.3,2.5c0.6,1,0.8,2.1,0.8,3.4
			c0,1.5-0.4,2.7-1.3,3.8c-0.8,1-2,1.8-3.5,2.4S238.5,92.6,236.5,92.6z"/>
		<path d="M260.7,92.6c-2.4,0-4.4-0.5-6.3-1.5s-3.3-2.4-4.3-4.1c-1-1.8-1.5-3.8-1.5-6.2s0.5-4.4,1.5-6.2c1-1.8,2.4-3.2,4.2-4.1
			c1.8-1,3.9-1.5,6.2-1.5c2.2,0,4.2,0.5,5.9,1.5c1.7,1,3,2.5,4,4.6c1,2,1.5,4.6,1.5,7.7h-7.7c0-1.6-0.1-3-0.3-4.2s-0.6-2.2-1.1-2.9
			s-1.4-1.1-2.6-1.1c-0.9,0-1.6,0.3-2.2,0.8c-0.6,0.5-0.9,1.3-1.2,2.2c-0.2,1-0.3,2.2-0.3,3.5c0,1.3,0.2,2.4,0.5,3.1
			c0.4,0.8,0.8,1.3,1.4,1.6c0.6,0.3,1.2,0.5,1.9,0.5c1,0,1.8-0.2,2.5-0.7c0.7-0.5,1.2-1,1.3-1.7l6.9,2.2c-0.5,1.6-1.4,2.8-2.5,3.8
			c-1.1,0.9-2.4,1.6-3.8,2C263.4,92.4,262.1,92.6,260.7,92.6z M253.5,82.8l0-5h14.7v5H253.5z"/>
	</g>
</g>
<line class="st1" x1="19" y1="88.3" x2="19" y2="18.9"/>
<line class="st2" x1="9.4" y1="27.4" x2="38.5" y2="1.7"/>
<line class="st2" x1="50.3" y1="13.1" x2="35" y2="1.8"/>
</svg>
